<svg xmlns="http://www.w3.org/2000/svg" viewBox="0 0 204.24 74.61">
  <defs>
    <style>
      .cls-1 {
        fill: #fff;
      }
    </style>
  </defs>
  <g id="Layer_2" data-name="Layer 2">
    <g id="Layer_1-2" data-name="Layer 1">
      <path class="cls-1" d="M62.2,28.05H38.51V16.69H62.2Zm0,30.11H38.51V46.85H62.2Zm0-15.05H38.51V31.79H62.2ZM74.61,28.05H65.88V16.69H74.6Zm0,30.11H65.88V46.85H74.6Zm0-15.05H65.88V31.79H74.6ZM26.16,28.05H0V16.69H26.16Zm0,30.11H0V46.85H26.16Zm0-15.05H0V31.79H26.16ZM160,28.05H136.33V16.69H160Zm0,30.11H136.33V46.85H160Zm0-15.05H136.33V31.79H160Zm12.42,15.05h26.16V31.79H172.44Zm0-30.11h26.16V16.69H172.44Zm0,45.16h26.16V46.85H172.44ZM124,28.05H100.33V16.69H124Zm0,30.11H100.33V46.85H124Zm0-15.05H100.33V31.79H124ZM87,58.16V16.69H96.67V58.16Zm0,0a20.56,20.56,0,0,1-6.84-1.67,16.26,16.26,0,0,1-5.35-4.41,14.14,14.14,0,0,1-4.39-5.36,16,16,0,0,1-1.67-6.83V16.69h8.23V40a7.79,7.79,0,0,0,.89,3.85,7,7,0,0,0,2.46,3,8.23,8.23,0,0,0,6.65,2.36,8.73,8.73,0,0,0,6.67-2.36,7.48,7.48,0,0,0,2.46-3,7.5,7.5,0,0,0,.88-3.85V16.69h8.25V39.91a16.92,16.92,0,0,1-1.67,6.83,14.77,14.77,0,0,1-4.4,5.36,16.26,16.26,0,0,1-5.36,4.41A19,19,0,0,1,87,58.16Z"/>
      <path class="cls-1" d="M172.44,0A37.31,37.31,0,1,0,204.24,43,37.26,37.26,0,0,0,172.44,0Zm0,66.09a28.79,28.79,0,1,1,28.79-28.8A28.79,28.79,0,0,1,172.44,66.09Z"/>
    </g>
  </g>
</svg> 